<?xml version="1.0" encoding="UTF-8" standalone="no"?>
<!-- Created with Inkscape (http://www.inkscape.org/) -->

<svg
   width="220px"
   height="auto"
   viewBox="0 0 92.690048 14.85451"
   version="1.1"
   id="svg1"
   xmlns="http://www.w3.org/2000/svg"
   xmlns:svg="http://www.w3.org/2000/svg">
  <defs
     id="defs1" />
  <g
     id="layer1"
     transform="translate(-59.397024,-120.92562)">
    <rect
       style="fill:#000000;stroke-width:0.228197"
       id="rect6"
       width="92.682205"
       height="1.1282686"
       x="59.399548"
       y="133.77856" />
    <path
       style="fill:#000000;stroke-width:0.264583"
       id="path7"
       d="M 142.52195,53.865111 56.136818,103.75154 56.126469,3.996605 Z"
       transform="matrix(0.72441929,0,0,0.02869999,18.737927,132.79502)" />
    <path
       style="fill:#000000;stroke-width:0.264583"
       id="path7-3"
       d="M 142.52195,53.865111 56.136818,103.75154 56.126469,3.996605 Z"
       transform="matrix(-0.72760706,0,0,0.02878194,192.92509,132.79396)" />
    <path
       style="font-size:53.3333px;font-family:'Good Times';-inkscape-font-specification:'Good Times';white-space:pre;stroke-width:0.246851"
       d="m 148.18681,129.97826 v -7.36986 h 3.89466 v -1.55995 h -9.58144 v 1.55995 h 3.89467 v 7.36986 z"
       id="path9" />
    <path
       style="font-size:53.3333px;font-family:'Good Times';-inkscape-font-specification:'Good Times';white-space:pre;stroke-width:0.246851"
       d="m 143.82647,129.97826 -5.91256,-8.54903 c -0.21166,-0.30708 -0.46566,-0.50361 -0.86077,-0.50361 -0.39511,0 -0.66322,0.19653 -0.87489,0.50361 l -5.89844,8.54903 h 2.04611 l 4.65666,-6.85397 2.286,3.341 h -3.14678 l -0.84666,1.26516 h 4.85422 l 1.53811,2.24781 z"
       id="path8" />
    <path
       style="font-size:53.3333px;font-family:'Good Times';-inkscape-font-specification:'Good Times';white-space:pre;stroke-width:0.246851"
       d="m 125.86303,129.97826 c 2.921,0 5.02356,-1.9653 5.02356,-4.55703 0,-2.59173 -2.06023,-4.37278 -5.02356,-4.37278 h -2.49766 c -2.86456,0 -4.98122,1.7442 -4.98122,4.37278 0,2.59173 2.11666,4.55703 4.98122,4.55703 z m -2.49766,-1.55995 c -1.84856,0 -3.18911,-1.2406 -3.18911,-2.92338 0,-1.69507 1.35466,-2.88653 3.18911,-2.88653 h 2.49766 c 1.89089,0 3.23144,1.20374 3.23144,2.88653 0,1.68278 -1.34055,2.92338 -3.23144,2.92338 z"
       id="path6" />
    <path
       style="font-size:53.3333px;font-family:'Good Times';-inkscape-font-specification:'Good Times';white-space:pre;fill:#ff0707;fill-opacity:1;stroke:none;stroke-width:0.246851;stroke-opacity:1"
       d="m 113.81214,129.97826 c 2.00377,0 3.302,-1.06863 3.302,-2.70229 0,-1.04405 -0.67734,-1.75647 -1.60867,-2.01442 0.762,-0.20881 1.42522,-0.77384 1.42522,-1.90388 0,-1.5231 -1.32644,-2.30922 -3.33022,-2.30922 h -7.50711 v 8.92981 z m -0.0706,-3.88146 c 1.00189,0 1.55222,0.41763 1.55222,1.15461 0,0.8721 -0.93133,1.17918 -2.21544,1.17918 h -5.19288 v -5.82219 h 5.03766 c 1.32644,0 2.18722,0.1474 2.18722,1.0932 0,0.77383 -0.47978,1.08091 -1.49578,1.08091 h -4.43088 v 1.31429 z"
       id="path5" />
    <path
       style="font-size:53.3333px;font-family:'Good Times';-inkscape-font-specification:'Good Times';white-space:pre;stroke-width:0.246851"
       d="m 98.515706,129.75716 c 0.254,0.2211 0.522111,0.33165 0.818444,0.33165 0.522113,0 0.889,-0.34394 0.889,-0.93352 v -8.18053 h -1.707444 v 6.53459 l -7.238994,-6.25209 c -0.268111,-0.23338 -0.49389,-0.31936 -0.762,-0.31936 -0.564444,0 -0.917221,0.35621 -0.917221,0.93352 v 8.10684 h 1.707444 v -6.53461 z"
       id="path4" />
    <path
       style="font-size:53.3333px;font-family:'Good Times';-inkscape-font-specification:'Good Times';white-space:pre;stroke-width:0.246851"
       d="m 88.539153,129.97826 -5.912551,-8.54903 c -0.211667,-0.30708 -0.465667,-0.50361 -0.86078,-0.50361 -0.39511,0 -0.66322,0.19653 -0.874887,0.50361 l -5.898441,8.54903 h 2.04611 l 4.656664,-6.85397 2.285998,3.341 h -3.146775 l -0.846666,1.26516 h 4.854217 l 1.538111,2.24781 z"
       id="path3" />
    <path
       style="font-size:53.3333px;font-family:'Good Times';-inkscape-font-specification:'Good Times';white-space:pre;fill-opacity:1;stroke:none;stroke-width:0.246851;stroke-opacity:1"
       d="m 74.49861,129.97826 -2.624667,-8.40164 c -0.14111,-0.42991 -0.423333,-0.63872 -0.860777,-0.63872 -0.381,0 -0.691443,0.18425 -0.860777,0.52818 l -3.160887,6.31351 -3.160887,-6.31351 c -0.169333,-0.34393 -0.52211,-0.52818 -0.90311,-0.52818 -0.479777,0 -0.762,0.20881 -0.889,0.63872 l -2.638777,8.40164 h 1.76389 l 1.961443,-6.27666 2.892774,5.8099 c 0.183447,0.38078 0.49389,0.58959 0.917224,0.58959 0.437443,0 0.719666,-0.20881 0.91722,-0.58959 l 2.906887,-5.8099 1.961444,6.27666 z"
       id="text2" />
  </g>
</svg>
